<svg xmlns="http://www.w3.org/2000/svg" viewBox="0 0 100 100" width="100" height="100">
  <!-- Red map pin shape -->
  <path d="M50 5 C30 5 14 21 14 41 C14 61 50 95 50 95 C50 95 86 61 86 41 C86 21 70 5 50 5 Z" fill="#CC1515"/>
  <!-- Dark bag body -->
  <rect x="28" y="34" width="44" height="34" rx="4" fill="#1a1a1a"/>
  <!-- Bag handle -->
  <path d="M38 34 Q38 24 50 24 Q62 24 62 34" fill="none" stroke="#1a1a1a" stroke-width="5" stroke-linecap="round"/>
  <!-- White checkmark -->
  <polyline points="36,51 45,60 64,40" fill="none" stroke="white" stroke-width="6" stroke-linecap="round" stroke-linejoin="round"/>
  <!-- Yellow lightning bolt on left -->
  <polygon points="10,38 18,38 13,50 21,50 8,68 12,53 4,53" fill="#FFD700"/>
</svg>
